<svg xmlns="http://www.w3.org/2000/svg" viewBox="0 0 812.183 162.605">
  <g id="Home_-_Nuleev_Display" data-name="Home - Nuleev Display" transform="translate(-554 -590.579)">
    <g id="Nuleev_Display_-_Sub" data-name="Nuleev Display - Sub" transform="translate(695.547 1665.561)">
      <path id="Path_68" data-name="Path 68" d="M76.67,69.411a5.638,5.638,0,0,1-2.19-2.1,6.145,6.145,0,0,1,0-6.034,5.637,5.637,0,0,1,2.2-2.105,6.468,6.468,0,0,1,3.139-.765,6.592,6.592,0,0,1,2.477.453,5.081,5.081,0,0,1,1.916,1.34l-1.073,1.036a4.316,4.316,0,0,0-3.255-1.366,4.732,4.732,0,0,0-2.329.576,4.2,4.2,0,0,0-1.627,1.585,4.659,4.659,0,0,0,0,4.522,4.186,4.186,0,0,0,1.627,1.587,4.731,4.731,0,0,0,2.329.574,4.335,4.335,0,0,0,3.255-1.379l1.073,1.034a5.125,5.125,0,0,1-1.924,1.348,6.553,6.553,0,0,1-2.486.46,6.4,6.4,0,0,1-3.13-.765" transform="translate(238.589 -982.603)"/>
      <path id="Path_69" data-name="Path 69" d="M91.459,65.024a2.89,2.89,0,0,1,.578,1.849,2.657,2.657,0,0,1-1.131,2.3,5.653,5.653,0,0,1-3.3.805H82.093V58.474H87.28a5.137,5.137,0,0,1,3.064.788,2.558,2.558,0,0,1,1.082,2.186A2.828,2.828,0,0,1,91,63.01a2.753,2.753,0,0,1-1.131,1,2.979,2.979,0,0,1,1.585,1.011M83.746,59.8v3.682h3.386a3.436,3.436,0,0,0,1.957-.47,1.716,1.716,0,0,0,0-2.745,3.452,3.452,0,0,0-1.957-.468Zm5.913,8.384a1.6,1.6,0,0,0,.711-1.446q0-1.924-2.825-1.924h-3.8v3.831h3.8a3.934,3.934,0,0,0,2.115-.46" transform="translate(246.371 -982.538)"/>
      <path id="Path_70" data-name="Path 70" d="M90.3,58.473h4.873a7.083,7.083,0,0,1,3.253.722,5.344,5.344,0,0,1,2.205,2.03,6.135,6.135,0,0,1,0,6,5.331,5.331,0,0,1-2.205,2.03,7.083,7.083,0,0,1-3.253.724H90.3ZM95.074,68.55a5.365,5.365,0,0,0,2.469-.543,3.939,3.939,0,0,0,1.645-1.52,4.713,4.713,0,0,0,0-4.522,3.952,3.952,0,0,0-1.645-1.52,5.365,5.365,0,0,0-2.469-.543H91.952V68.55Z" transform="translate(253.972 -982.539)"/>
      <path id="Path_71" data-name="Path 71" d="M103.226,63.9a1.45,1.45,0,0,1-.439-1.084,1.433,1.433,0,0,1,.447-1.061,1.464,1.464,0,0,1,1.057-.435,1.489,1.489,0,0,1,1.487,1.5,1.5,1.5,0,0,1-2.552,1.084" transform="translate(265.534 -979.907)"/>
      <path id="Path_72" data-name="Path 72" d="M125.518,58.473V69.981h-1.651V64.852h-6.641v5.129h-1.652V58.473h1.652v4.948h6.641V58.473Z" transform="translate(277.374 -982.539)"/>
      <path id="Path_73" data-name="Path 73" d="M132.431,68.55v1.431h-8.391V58.473h8.16V59.9h-6.508v3.534h5.8v1.4h-5.8V68.55Z" transform="translate(285.213 -982.539)"/>
      <path id="Path_74" data-name="Path 74" d="M139.495,67.1h-6.144l-1.273,2.877h-1.7l5.237-11.508h1.635L142.5,69.981h-1.733Zm-.578-1.315-2.494-5.639-2.494,5.639Z" transform="translate(291.082 -982.539)"/>
      <path id="Path_75" data-name="Path 75" d="M139.064,58.473h1.651V68.55h6.261v1.431h-7.912Z" transform="translate(299.126 -982.539)"/>
      <path id="Path_76" data-name="Path 76" d="M148.2,59.9h-3.964V58.473H153.8V59.9h-3.964V69.98H148.2Z" transform="translate(303.915 -982.539)"/>
      <path id="Path_77" data-name="Path 77" d="M161.581,58.473V69.981H159.93V64.852h-6.641v5.129h-1.652V58.473h1.652v4.948h6.641V58.473Z" transform="translate(310.768 -982.539)"/>
      <path id="Path_78" data-name="Path 78" d="M172.844,70.209l-1.537-1.529a5.351,5.351,0,0,1-3.865,1.479,5.463,5.463,0,0,1-2.082-.378,3.371,3.371,0,0,1-1.444-1.059,2.5,2.5,0,0,1-.52-1.554,2.9,2.9,0,0,1,.653-1.866,7.551,7.551,0,0,1,2.155-1.668,5.8,5.8,0,0,1-1.075-1.366A2.732,2.732,0,0,1,164.816,61a2.317,2.317,0,0,1,.849-1.874,3.441,3.441,0,0,1,2.271-.707,3.2,3.2,0,0,1,2.1.641,2.161,2.161,0,0,1,.776,1.758,2.39,2.39,0,0,1-.57,1.562,6.944,6.944,0,0,1-1.891,1.446l2.858,2.827a7.3,7.3,0,0,0,.709-2.086l1.273.41a7.58,7.58,0,0,1-1.009,2.631l1.554,1.545Zm-2.479-2.45L167.078,64.5a5.923,5.923,0,0,0-1.658,1.225A1.934,1.934,0,0,0,164.947,67a1.565,1.565,0,0,0,.718,1.331,3.176,3.176,0,0,0,1.874.51,3.865,3.865,0,0,0,2.825-1.086m-3.642-7.8a1.289,1.289,0,0,0-.437,1.011,1.67,1.67,0,0,0,.239.855,6.48,6.48,0,0,0,.934,1.117,7.046,7.046,0,0,0,1.577-1.1,1.43,1.43,0,0,0,.437-1,1.149,1.149,0,0,0-.4-.921,1.686,1.686,0,0,0-1.132-.345,1.768,1.768,0,0,0-1.213.385" transform="translate(321.656 -982.586)"/>
      <path id="Path_79" data-name="Path 79" d="M192.018,58.473l-3.865,11.508h-1.733l-3.157-9.189-3.155,9.189h-1.766l-3.865-11.508h1.7l3.122,9.354,3.255-9.354h1.52l3.188,9.4,3.188-9.4Z" transform="translate(331.916 -982.539)"/>
      <path id="Path_80" data-name="Path 80" d="M194.522,68.55v1.431H186.13V58.473h8.16V59.9h-6.508v3.534h5.8v1.4h-5.8V68.55Z" transform="translate(342.708 -982.539)"/>
      <path id="Path_81" data-name="Path 81" d="M193.377,58.473h1.651V68.55h6.261v1.431h-7.912Z" transform="translate(349.419 -982.539)"/>
      <path id="Path_82" data-name="Path 82" d="M199.972,58.473h1.651V68.55h6.261v1.431h-7.912Z" transform="translate(355.526 -982.539)"/>
      <path id="Path_83" data-name="Path 83" d="M216.511,58.473V69.981h-1.354L208.22,61.4v8.582h-1.653V58.473h1.354l6.939,8.58v-8.58Z" transform="translate(361.632 -982.539)"/>
      <path id="Path_84" data-name="Path 84" d="M223.423,68.55v1.431h-8.391V58.473h8.16V59.9h-6.508v3.534h5.8v1.4h-5.8V68.55Z" transform="translate(369.471 -982.539)"/>
      <path id="Path_85" data-name="Path 85" d="M223.639,69.772a5.172,5.172,0,0,1-1.909-1.044l.613-1.283a5.035,5.035,0,0,0,1.693.963,6.24,6.24,0,0,0,2.122.37,3.827,3.827,0,0,0,2.146-.485,1.493,1.493,0,0,0,.711-1.29,1.265,1.265,0,0,0-.387-.961,2.588,2.588,0,0,0-.957-.568c-.381-.131-.917-.279-1.612-.443a16.55,16.55,0,0,1-2.105-.626,3.462,3.462,0,0,1-1.371-.961,2.564,2.564,0,0,1-.57-1.751,2.945,2.945,0,0,1,.487-1.66,3.347,3.347,0,0,1,1.479-1.184,6.04,6.04,0,0,1,2.459-.443,7.829,7.829,0,0,1,2.017.262,5.4,5.4,0,0,1,1.7.757l-.545,1.315a5.991,5.991,0,0,0-1.552-.7,5.861,5.861,0,0,0-1.62-.239,3.586,3.586,0,0,0-2.105.51,1.557,1.557,0,0,0-.7,1.315,1.253,1.253,0,0,0,.395.961,2.77,2.77,0,0,0,.984.576,15.74,15.74,0,0,0,1.593.435,15.8,15.8,0,0,1,2.1.626,3.514,3.514,0,0,1,1.364.951,2.509,2.509,0,0,1,.57,1.728,2.937,2.937,0,0,1-.495,1.653,3.335,3.335,0,0,1-1.5,1.183,6.24,6.24,0,0,1-2.477.435,7.913,7.913,0,0,1-2.519-.4" transform="translate(375.673 -982.602)"/>
      <path id="Path_86" data-name="Path 86" d="M230.465,69.772a5.171,5.171,0,0,1-1.909-1.044l.612-1.283a5.036,5.036,0,0,0,1.693.963,6.24,6.24,0,0,0,2.122.37,3.826,3.826,0,0,0,2.146-.485A1.493,1.493,0,0,0,235.84,67a1.265,1.265,0,0,0-.387-.961,2.587,2.587,0,0,0-.957-.568c-.381-.131-.917-.279-1.612-.443a16.545,16.545,0,0,1-2.105-.626,3.462,3.462,0,0,1-1.371-.961,2.564,2.564,0,0,1-.57-1.751,2.945,2.945,0,0,1,.487-1.66,3.347,3.347,0,0,1,1.479-1.184,6.04,6.04,0,0,1,2.459-.443,7.829,7.829,0,0,1,2.017.262,5.4,5.4,0,0,1,1.7.757l-.545,1.315a5.989,5.989,0,0,0-1.552-.7,5.861,5.861,0,0,0-1.62-.239,3.586,3.586,0,0,0-2.105.51,1.557,1.557,0,0,0-.7,1.315,1.253,1.253,0,0,0,.395.961,2.77,2.77,0,0,0,.984.576,15.742,15.742,0,0,0,1.593.435,15.8,15.8,0,0,1,2.1.626,3.514,3.514,0,0,1,1.364.951,2.509,2.509,0,0,1,.57,1.728,2.937,2.937,0,0,1-.5,1.653,3.335,3.335,0,0,1-1.5,1.183,6.239,6.239,0,0,1-2.477.435,7.912,7.912,0,0,1-2.519-.4" transform="translate(381.994 -982.602)"/>
    </g>
    <g id="Nuleev_Display" data-name="Nuleev Display" transform="translate(984.758 1855.75)">
      <path id="Path_62" data-name="Path 62" d="M74.34,132.567h7.988a3.719,3.719,0,0,0,4.09-4.09V17.305h16.921l58.372,83.1c4.838,7.068,10.971,17.851,10.971,17.851h.379a177.472,177.472,0,0,1-1.309-17.851v-71.2c0-8.367,3.534-11.9,12.083-11.9h18.594V33.291h-8c-2.6,0-4.09,1.3-4.09,4.09V148.558H173.611l-58.564-83.1c-4.828-7.063-10.784-17.846-10.784-17.846H103.9s1.112,10.6,1.112,17.846v71.2c0,8.367-3.534,11.9-11.9,11.9H74.34Z" transform="translate(-505.098 -1282.477)"/>
      <path id="Path_63" data-name="Path 63" d="M118.855,37.381c0-2.786-1.486-4.09-4.09-4.09h-7.993V17.305h18.776c8.362,0,11.9,3.529,11.9,11.9V101.89c0,19.707,12.457,31.42,31.42,31.42s31.415-11.714,31.415-31.6V29.2c0-8.367,3.721-11.9,12.088-11.9h18.589V33.291h-7.993c-2.6,0-4.09,1.3-4.09,4.09v65.257c0,28.625-19.894,48.149-49.828,48.149-30.116,0-50.192-19.525-50.192-48.149Z" transform="translate(-373.567 -1282.477)"/>
      <path id="Path_64" data-name="Path 64" d="M150.514,37.381c0-2.786-1.486-4.09-4.09-4.09h-7.993V17.305h18.776c8.367,0,11.9,3.529,11.9,11.9v99.276a3.721,3.721,0,0,0,4.09,4.09h36.254a3.719,3.719,0,0,0,4.09-4.09V120.11h16.916v16.547c0,8.367-3.529,11.9-11.9,11.9H162.41c-8.362,0-11.9-3.529-11.9-11.9Z" transform="translate(-245.172 -1282.477)"/>
      <path id="Path_65" data-name="Path 65" d="M173.937,33.291H161.854V17.305h77.153c8.362,0,11.9,3.534,11.9,11.9V45.748H233.987V37.381c0-2.786-1.486-4.09-4.09-4.09H192.531V74.377h45.915V90.363H192.531v38.114a3.718,3.718,0,0,0,4.085,4.09h38.3a3.721,3.721,0,0,0,4.09-4.09V120.11h17.1v16.547c0,8.367-3.534,11.9-11.9,11.9H185.833c-8.362,0-11.9-3.529-11.9-11.9Z" transform="translate(-150.178 -1282.477)"/>
      <path id="Path_66" data-name="Path 66" d="M199.419,33.291H187.336V17.305h77.153c8.362,0,11.9,3.534,11.9,11.9V45.748H259.469V37.381c0-2.786-1.486-4.09-4.09-4.09H218.008V74.377h45.92V90.363h-45.92v38.114a3.721,3.721,0,0,0,4.09,4.09h38.3a3.721,3.721,0,0,0,4.09-4.09V120.11h17.1v16.547c0,8.367-3.534,11.9-11.9,11.9H211.315c-8.362,0-11.9-3.529-11.9-11.9Z" transform="translate(-46.834 -1282.477)"/>
      <path id="Path_67" data-name="Path 67" d="M220.046,37.381c-1.117-3.347-2.973-4.09-6.132-4.09h-2.6V17.305H221.72c9.3,0,12.457,2.042,15.43,10.784l28.817,80.864c2.417,7.068,5.02,18.038,5.02,18.038h.369a174.857,174.857,0,0,1,5.02-18.038l28.817-80.864c3.16-8.741,6.138-10.784,15.43-10.784h10.409V33.291h-2.6c-3.347,0-5.02.743-6.137,4.09L281.027,148.553H261.32Z" transform="translate(50.394 -1282.477)"/>
    </g>
  </g>
</svg>
