<svg id="Component_11_2" data-name="Component 11 – 2" xmlns="http://www.w3.org/2000/svg" xmlns:xlink="http://www.w3.org/1999/xlink" width="29.226" height="29.227" viewBox="0 0 29.226 29.227">
  <defs>
    <clipPath id="clip-path">
      <rect id="Rectangle_51" data-name="Rectangle 51" width="29.226" height="29.226" fill="#fff"/>
    </clipPath>
  </defs>
  <g id="Group_11" data-name="Group 11" clip-path="url(#clip-path)">
    <path id="Path_101" data-name="Path 101" d="M14.613,2.633c3.9,0,4.364.015,5.9.085a8.088,8.088,0,0,1,2.714.5,4.526,4.526,0,0,1,1.68,1.093A4.527,4.527,0,0,1,26,5.995a8.079,8.079,0,0,1,.5,2.713c.07,1.541.085,2,.085,5.9s-.015,4.364-.085,5.905a8.081,8.081,0,0,1-.5,2.713A4.839,4.839,0,0,1,23.231,26a8.088,8.088,0,0,1-2.714.5c-1.54.07-2,.085-5.9.085s-4.364-.015-5.9-.085A8.088,8.088,0,0,1,5.995,26a4.529,4.529,0,0,1-1.68-1.093,4.531,4.531,0,0,1-1.093-1.68,8.089,8.089,0,0,1-.5-2.713c-.07-1.541-.085-2-.085-5.905s.015-4.364.085-5.9a8.088,8.088,0,0,1,.5-2.713,4.53,4.53,0,0,1,1.093-1.68,4.526,4.526,0,0,1,1.68-1.093,8.088,8.088,0,0,1,2.714-.5c1.541-.07,2-.085,5.9-.085m0-2.633c-3.969,0-4.466.017-6.025.088A10.727,10.727,0,0,0,5.041.767,7.165,7.165,0,0,0,2.453,2.453,7.161,7.161,0,0,0,.767,5.041,10.722,10.722,0,0,0,.088,8.588C.017,10.147,0,10.644,0,14.613s.017,4.466.088,6.025a10.723,10.723,0,0,0,.679,3.547,7.161,7.161,0,0,0,1.685,2.588,7.165,7.165,0,0,0,2.588,1.685,10.727,10.727,0,0,0,3.547.679c1.559.071,2.056.088,6.025.088s4.466-.017,6.025-.088a10.727,10.727,0,0,0,3.547-.679,7.472,7.472,0,0,0,4.274-4.274,10.723,10.723,0,0,0,.679-3.547c.071-1.559.088-2.056.088-6.025s-.017-4.466-.088-6.025a10.722,10.722,0,0,0-.679-3.547,7.161,7.161,0,0,0-1.685-2.588A7.165,7.165,0,0,0,24.185.767,10.727,10.727,0,0,0,20.638.088C19.079.017,18.582,0,14.613,0" fill="#fff"/>
    <path id="Path_102" data-name="Path 102" d="M35.4,27.9a7.5,7.5,0,1,0,7.5,7.5,7.5,7.5,0,0,0-7.5-7.5m0,12.375A4.871,4.871,0,1,1,40.276,35.4,4.871,4.871,0,0,1,35.4,40.276" transform="translate(-20.792 -20.792)" fill="#fff"/>
    <path id="Path_103" data-name="Path 103" d="M84.591,21.609a1.754,1.754,0,1,1-1.754-1.753,1.753,1.753,0,0,1,1.754,1.753" transform="translate(-60.424 -14.797)" fill="#fff"/>
  </g>
</svg>
