<svg xmlns="http://www.w3.org/2000/svg" xmlns:xlink="http://www.w3.org/1999/xlink"  viewBox="0 0 82 82">
  <defs>
    <clipPath id="clip-path">
      <rect width="82" height="82" fill="none"/>
    </clipPath>
  </defs>
  <g id="Home_-_Logo" data-name="Home - Logo" clip-path="url(#clip-path)">
    <g id="Home_-_Logo-2" data-name="Home - Logo" transform="translate(2408 -125)">
      <path id="Path_27" data-name="Path 27" d="M0,71.769H.8a.363.363,0,0,0,.41-.387V60.868h1.7l5.862,7.859c.486.668,1.1,1.688,1.1,1.688h.037a15.883,15.883,0,0,1-.131-1.688V61.993c0-.791.355-1.125,1.214-1.125h1.866V62.38h-.8c-.261,0-.41.123-.41.386V73.28H9.969L4.088,65.422c-.485-.668-1.083-1.688-1.083-1.688H2.969s.112,1,.112,1.688v6.734c0,.791-.355,1.125-1.195,1.125H0Z" transform="translate(-2408 100.944)"/>
      <path id="Path_28" data-name="Path 28" d="M28.611,62.767c0-.264-.15-.387-.411-.387h-.8V60.868h1.885c.84,0,1.195.334,1.195,1.126v6.874a2.851,2.851,0,0,0,3.155,2.972,2.855,2.855,0,0,0,3.155-2.989V61.994c0-.791.373-1.126,1.213-1.126h1.866V62.38h-.8c-.261,0-.411.123-.411.387v6.171c0,2.708-2,4.554-5,4.554-3.024,0-5.04-1.846-5.04-4.554Z" transform="translate(-2418.828 100.945)"/>
      <path id="Path_29" data-name="Path 29" d="M55.357,62.767c0-.264-.149-.387-.41-.387h-.8V60.868H56.03c.839,0,1.195.334,1.195,1.126v9.389a.363.363,0,0,0,.41.387h3.64a.363.363,0,0,0,.41-.387v-.791h1.7v1.564c0,.791-.355,1.126-1.195,1.126H56.552c-.84,0-1.195-.334-1.195-1.126Z" transform="translate(-2429.408 100.944)"/>
      <path id="Path_30" data-name="Path 30" d="M75.145,62.38H73.932V60.868h7.747c.84,0,1.195.334,1.195,1.126v1.565h-1.7v-.791c0-.264-.149-.387-.41-.387H77.012v3.885h4.611v1.512H77.012v3.6a.362.362,0,0,0,.41.386h3.846a.362.362,0,0,0,.41-.386v-.791H83.4v1.565c0,.791-.355,1.126-1.195,1.126H76.34c-.84,0-1.195-.334-1.195-1.126Z" transform="translate(-2437.231 100.944)"/>
      <path id="Path_31" data-name="Path 31" d="M96.672,62.38H95.459V60.868h7.747c.84,0,1.195.334,1.195,1.126v1.565h-1.7v-.791c0-.264-.149-.387-.41-.387H98.539v3.885h4.611v1.512H98.539v3.6a.362.362,0,0,0,.41.386H102.8a.362.362,0,0,0,.41-.386v-.791h1.717v1.565c0,.791-.355,1.126-1.195,1.126H97.867c-.84,0-1.195-.334-1.195-1.126Z" transform="translate(-2445.742 100.944)"/>
      <path id="Path_32" data-name="Path 32" d="M116.589,62.767c-.112-.317-.3-.387-.616-.387h-.261V60.868h1.046c.933,0,1.25.193,1.549,1.02l2.893,7.648c.243.668.5,1.705.5,1.705h.037a15.664,15.664,0,0,1,.5-1.705l2.893-7.648c.317-.826.616-1.02,1.549-1.02h1.046V62.38h-.261c-.336,0-.5.07-.616.387l-4.144,10.514h-1.979Z" transform="translate(-2453.734 100.944)"/>
      <path id="Path_33" data-name="Path 33" d="M66.364,21.328l-.447-.711a18.891,18.891,0,0,1-2.712-9.952A18.891,18.891,0,0,1,65.917.711L66.364,0l.447.711a18.89,18.89,0,0,1,2.712,9.953,18.889,18.889,0,0,1-2.712,9.952Zm0-19.357a18.268,18.268,0,0,0-2.12,8.693,18.267,18.267,0,0,0,2.12,8.692,18.265,18.265,0,0,0,2.12-8.692,18.266,18.266,0,0,0-2.12-8.693" transform="translate(-2433 125)"/>
      <path id="Path_34" data-name="Path 34" d="M53.564,45.594h-1.04V38.845a8.945,8.945,0,0,0-9.19-8.656,8.945,8.945,0,0,0-9.19,8.656H33.1c0-5.313,4.589-9.635,10.23-9.635s10.23,4.322,10.23,9.635Z" transform="translate(-2421.066 113.463)"/>
      <path id="Path_35" data-name="Path 35" d="M62.212,35.742c-5.641,0-10.23-4.322-10.23-9.635V19.514h1.04v6.593a9.207,9.207,0,0,0,18.381,0V19.514h1.04v6.593c0,5.313-4.589,9.635-10.23,9.635" transform="translate(-2428.518 117.212)"/>
      <path id="Path_36" data-name="Path 36" d="M71.147,45.594h-1.04V38.845c0-5.313,4.589-9.635,10.23-9.635s10.23,4.322,10.23,9.635h-1.04a9.207,9.207,0,0,0-18.381,0Z" transform="translate(-2435.672 113.463)"/>
      <path id="Path_37" data-name="Path 37" d="M45.945,46.558a13.1,13.1,0,0,1-2.747-.3,11.629,11.629,0,0,1-5.25-2.556l-.636-.569.836-.252a12.055,12.055,0,0,1,5.908-.145,11.634,11.634,0,0,1,5.25,2.554l.636.57-.836.252a11.034,11.034,0,0,1-3.161.442M39.41,43.591a11.06,11.06,0,0,0,4.02,1.717,11.383,11.383,0,0,0,4.412.1,11.06,11.06,0,0,0-4.02-1.717,11.384,11.384,0,0,0-4.412-.1" transform="translate(-2422.746 108.208)"/>
      <path id="Path_38" data-name="Path 38" d="M82.839,46.558a11.034,11.034,0,0,1-3.161-.442l-.836-.252.636-.57a11.628,11.628,0,0,1,5.25-2.554,12.048,12.048,0,0,1,5.908.145l.836.252-.636.57a11.641,11.641,0,0,1-5.25,2.555,13.086,13.086,0,0,1-2.747.3m-1.9-1.147a11.381,11.381,0,0,0,4.412-.1,11.064,11.064,0,0,0,4.02-1.717,11.383,11.383,0,0,0-4.412.1,11.053,11.053,0,0,0-4.02,1.717" transform="translate(-2439.159 108.208)"/>
      <path id="Path_39" data-name="Path 39" d="M54.61,116.158c-11.771,0-21.347-9.02-21.347-20.106V86.706H34.3v9.345c0,10.547,9.11,19.128,20.308,19.128s20.308-8.58,20.308-19.128V86.706h1.04v9.345c0,11.087-9.577,20.106-21.348,20.106" transform="translate(-2421.046 90.842)"/>
      <path id="Path_40" data-name="Path 40" d="M43.623,98.1h-2.91v-.392h1.3V96.134h-1.3v-.391h2.91v.391H42.371v1.574h1.252Z" transform="translate(-2424.109 87.114)"/>
      <path id="Path_41" data-name="Path 41" d="M41.187,104.055l-.361.025-.154-1.984,2.9-.2.151,1.93-.361.025-.12-1.538-.892.062.107,1.371-.353.025L42,102.4l-.937.065Z" transform="translate(-2424.093 84.679)"/>
      <path id="Path_42" data-name="Path 42" d="M42.657,109.368l-.472-1.387-.79-.078-.131-.384,3.174.346.126.369-2.368,2.022-.133-.391Zm.272-.226,1.166-.973-1.55-.153Z" transform="translate(-2424.327 82.456)"/>
      <path id="Path_43" data-name="Path 43" d="M46.434,111.774l.212.337-2.193,1.222.8,1.278-.311.174L43.93,113.17Z" transform="translate(-2425.383 80.838)"/>
      <path id="Path_44" data-name="Path 44" d="M49.356,115.659l-.657-.707.272-.224,1.585,1.707-.272.224-.657-.707-1.918,1.58-.271-.292Z" transform="translate(-2426.77 79.659)"/>
      <path id="Path_45" data-name="Path 45" d="M54.547,119.815l-1.694,2.229-.338-.228.755-.994-1.359-.916-.755.993-.338-.228,1.694-2.229.338.228-.729.958,1.359.916.729-.958Z" transform="translate(-2428.106 78.176)"/>
      <path id="Path_46" data-name="Path 46" d="M62.068,125.856l-.275-.445a1.535,1.535,0,0,1-1.519-.106.8.8,0,0,1-.283-.332.562.562,0,0,1-.026-.389.7.7,0,0,1,.279-.391,1.973,1.973,0,0,1,.632-.254,1.355,1.355,0,0,1-.174-.379.615.615,0,0,1,.005-.31.563.563,0,0,1,.329-.38.911.911,0,0,1,.6-.025.809.809,0,0,1,.47.275.5.5,0,0,1,.075.452.568.568,0,0,1-.24.325,1.8,1.8,0,0,1-.554.219l.513.824a1.744,1.744,0,0,0,.308-.438l.283.172a1.826,1.826,0,0,1-.415.545l.278.449Zm-.445-.714-.589-.948a1.543,1.543,0,0,0-.483.181.465.465,0,0,0-.2.265.36.36,0,0,0,.09.35.8.8,0,0,0,.423.231,1.023,1.023,0,0,0,.757-.079m-.382-2.017a.309.309,0,0,0-.172.206.384.384,0,0,0,0,.212,1.6,1.6,0,0,0,.155.314,1.889,1.889,0,0,0,.455-.159.342.342,0,0,0,.171-.2.26.26,0,0,0-.039-.237.429.429,0,0,0-.253-.148.469.469,0,0,0-.32.016" transform="translate(-2431.719 76.434)"/>
      <path id="Path_47" data-name="Path 47" d="M72.992,122.9l-.526,2.847-.431.062L70.9,123.756l-.437,2.276-.44.063-1.4-2.573.424-.061,1.131,2.093.455-2.319.379-.054,1.149,2.1.437-2.328Z" transform="translate(-2435.15 76.398)"/>
      <path id="Path_48" data-name="Path 48" d="M80.1,123.043l.153.308-1.913.843-1.233-2.483,1.86-.82.153.309-1.484.654.379.763,1.322-.582.15.3-1.322.583.4.8Z" transform="translate(-2438.511 77.199)"/>
      <path id="Path_49" data-name="Path 49" d="M81.766,119.784l.33-.237,1.546,1.908,1.253-.9.219.271-1.583,1.138Z" transform="translate(-2440.352 77.736)"/>
      <path id="Path_50" data-name="Path 50" d="M85.416,116.87l.273-.3,1.921,1.578,1.036-1.119.272.224-1.309,1.413Z" transform="translate(-2441.796 78.922)"/>
      <path id="Path_51" data-name="Path 51" d="M89.562,110.162l2.575,1.278-.159.284-2.734.5,1.92.952-.194.346L88.4,112.248l.159-.284,2.734-.5-1.92-.952Z" transform="translate(-2442.973 81.481)"/>
      <path id="Path_52" data-name="Path 52" d="M93.975,105.73l.352.081-.5,1.933L91,107.1l.483-1.88.352.08-.385,1.5.869.2.343-1.336.343.078-.343,1.336.913.208Z" transform="translate(-2444.006 83.365)"/>
      <path id="Path_53" data-name="Path 53" d="M94.826,102.12a1.213,1.213,0,0,1-.272.448l-.322-.15a1.186,1.186,0,0,0,.25-.4,1.4,1.4,0,0,0,.1-.5.862.862,0,0,0-.114-.511.381.381,0,0,0-.323-.173.329.329,0,0,0-.245.088.6.6,0,0,0-.148.224,3.979,3.979,0,0,0-.119.38,3.718,3.718,0,0,1-.167.5.825.825,0,0,1-.249.321.677.677,0,0,1-.445.128.783.783,0,0,1-.418-.122.809.809,0,0,1-.293-.355,1.347,1.347,0,0,1-.1-.585,1.738,1.738,0,0,1,.075-.477,1.224,1.224,0,0,1,.2-.4l.33.134a1.408,1.408,0,0,0-.183.365,1.322,1.322,0,0,0-.067.383.8.8,0,0,0,.12.5.4.4,0,0,0,.329.172.326.326,0,0,0,.245-.09.649.649,0,0,0,.15-.231,3.5,3.5,0,0,0,.117-.376,3.644,3.644,0,0,1,.167-.495.841.841,0,0,1,.246-.319.662.662,0,0,1,.439-.128.769.769,0,0,1,.416.124.8.8,0,0,1,.293.361,1.39,1.39,0,0,1,.1.589,1.774,1.774,0,0,1-.112.6" transform="translate(-2444.388 85.25)"/>
      <path id="Path_54" data-name="Path 54" d="M94.839,97.061a1.212,1.212,0,0,1-.264.452l-.324-.145a1.192,1.192,0,0,0,.243-.4,1.4,1.4,0,0,0,.094-.5.865.865,0,0,0-.123-.509.385.385,0,0,0-.327-.168.33.33,0,0,0-.243.092.6.6,0,0,0-.144.227,3.865,3.865,0,0,0-.112.382,3.751,3.751,0,0,1-.158.5.825.825,0,0,1-.243.325.676.676,0,0,1-.443.135.782.782,0,0,1-.419-.115.8.8,0,0,1-.3-.351,1.343,1.343,0,0,1-.112-.583,1.766,1.766,0,0,1,.066-.478,1.23,1.23,0,0,1,.192-.4l.332.129a1.378,1.378,0,0,0-.177.368,1.3,1.3,0,0,0-.06.383.808.808,0,0,0,.129.5.4.4,0,0,0,.333.166.329.329,0,0,0,.243-.094.655.655,0,0,0,.145-.233,3.48,3.48,0,0,0,.11-.378,3.649,3.649,0,0,1,.158-.5.845.845,0,0,1,.241-.323.661.661,0,0,1,.437-.135.774.774,0,0,1,.418.118.8.8,0,0,1,.3.356,1.391,1.391,0,0,1,.111.587,1.778,1.778,0,0,1-.1.6" transform="translate(-2444.389 87.248)"/>
      <path id="Path_55" data-name="Path 55" d="M70.8,96.64a5.194,5.194,0,0,1-1.755,3.921,6.2,6.2,0,0,1-8.385,0A5.2,5.2,0,0,1,58.9,96.64a6.018,6.018,0,0,1,1.925-4.1l.4-.415a12.739,12.739,0,0,0,1.967-2.607,14.233,14.233,0,0,0,1.145-3.255l.5-2.049.511,2.046a14.551,14.551,0,0,0,1.157,3.258,12.72,12.72,0,0,0,1.97,2.61l.394.412a6.02,6.02,0,0,1,1.926,4.1M61.9,98.123A1.638,1.638,0,0,0,62.556,98a1.276,1.276,0,0,0,.49-.364l-.41-.376a.883.883,0,0,1-.7.325.93.93,0,0,1-.458-.112.8.8,0,0,1-.314-.311.97.97,0,0,1,0-.909.793.793,0,0,1,.314-.311.93.93,0,0,1,.458-.112.887.887,0,0,1,.7.321l.41-.376a1.3,1.3,0,0,0-.487-.361,1.625,1.625,0,0,0-.65-.125,1.6,1.6,0,0,0-.768.182,1.367,1.367,0,0,0-.537.5,1.464,1.464,0,0,0,0,1.461,1.364,1.364,0,0,0,.537.505,1.6,1.6,0,0,0,.764.182m3.6-1.473a.673.673,0,0,0,.271-.246.666.666,0,0,0,.1-.356.607.607,0,0,0-.271-.521,1.329,1.329,0,0,0-.776-.192H63.476v2.741h1.43a1.455,1.455,0,0,0,.824-.194.632.632,0,0,0,.282-.554.684.684,0,0,0-.135-.429.732.732,0,0,0-.371-.249m-.758-.838a.663.663,0,0,1,.359.08.269.269,0,0,1,.123.241.273.273,0,0,1-.123.243.641.641,0,0,1-.359.082h-.636v-.646Zm.111,1.786h-.746V96.92h.746q.509,0,.51.341a.281.281,0,0,1-.129.255.713.713,0,0,1-.381.082m1.639.478h1.256a1.778,1.778,0,0,0,.8-.171,1.287,1.287,0,0,0,.537-.48,1.45,1.45,0,0,0,0-1.441,1.284,1.284,0,0,0-.537-.48,1.786,1.786,0,0,0-.8-.17H66.5Zm.64-.521v-1.7h.585a.935.935,0,0,1,.662.229.9.9,0,0,1,0,1.241.935.935,0,0,1-.662.229Z" transform="translate(-2431.281 91.745)"/>
    </g>
  </g>
</svg>
